{
  "asset": {
    "version": "2.0",
    "generator": "THREE.GLTFExporter"
  },
  "scenes": [
    {
      "name": "Scene",
      "nodes": [
        1
      ]
    }
  ],
  "scene": 0,
  "nodes": [
    {
      "matrix": [
        1,
        0,
        0,
        0,
        0,
        7.54979009309764e-8,
        0.9999999999999972,
        0,
        0,
        -0.9999999999999972,
        7.54979009309764e-8,
        0,
        -1.9788742065429688,
        3.4098501205444336,
        44.06744384765625,
        1
      ],
      "name": "TextPlus001",
      "extras": {
        "transformData": {
          "inheritType": 1,
          "eulerOrder": "ZYX",
          "translation": [
            -1.9788742065429688,
            3.4098501205444336,
            44.06744384765625
          ],
          "rotation": [
            89.9999956742889,
            0,
            0
          ],
          "parentMatrix": {
            "elements": [
              1,
              0,
              0,
              0,
              0,
              -0.007895968639584972,
              -0.9999688263537232,
              0,
              0,
              0.9999688263537232,
              -0.007895968639584972,
              0,
              0,
              0,
              0,
              1
            ]
          },
          "parentMatrixWorld": {
            "elements": [
              1,
              0,
              0,
              0,
              0,
              -0.007895968639584972,
              -0.9999688263537232,
              0,
              0,
              0.9999688263537232,
              -0.007895968639584972,
              0,
              0,
              0,
              0,
              1
            ]
          }
        }
      },
      "mesh": 0
    },
    {
      "matrix": [
        1,
        0,
        0,
        0,
        0,
        -0.007895968639584972,
        -0.9999688263537232,
        0,
        0,
        0.9999688263537232,
        -0.007895968639584972,
        0,
        0,
        0,
        0,
        1
      ],
      "children": [
        0
      ]
    }
  ],
  "bufferViews": [
    {
      "buffer": 0,
      "byteOffset": 0,
      "byteLength": 507600,
      "target": 34962,
      "byteStride": 12
    },
    {
      "buffer": 0,
      "byteOffset": 507600,
      "byteLength": 507600,
      "target": 34962,
      "byteStride": 12
    }
  ],
  "buffers": [
    {
      "byteLength": 1015200,
      "uri": "data:application/octet-stream;base64,"
    }
  ],
  "accessors": [
    {
      "bufferView": 0,
      "componentType": 5126,
      "count": 42300,
      "max": [
        58.837501525878906,
        21.81293487548828,
        0.8699999451637268
      ],
      "min": [
        -53.537506103515625,
        -16.93706512451172,
        0
      ],
      "type": "VEC3"
    },
    {
      "bufferView": 1,
      "componentType": 5126,
      "count": 42300,
      "max": [
        0.9999995827674866,
        1,
        1
      ],
      "min": [
        -0.9999999403953552,
        -1,
        -1
      ],
      "type": "VEC3"
    }
  ],
  "materials": [
    {
      "pbrMetallicRoughness": {
        "baseColorFactor": [
          1,
          0.17647058823529413,
          1,
          1
        ],
        "metallicFactor": 0.5,
        "roughnessFactor": 0.5
      },
      "emissiveFactor": [
        0.5372549019607843,
        0.12941176470588237,
        0.3254901960784314
      ]
    }
  ],
  "meshes": [
    {
      "primitives": [
        {
          "mode": 4,
          "attributes": {
            "POSITION": 0,
            "NORMAL": 1
          },
          "material": 0
        }
      ]
    }
  ]
}